<svg width="43" height="61" viewBox="0 0 43 61" fill="none" xmlns="http://www.w3.org/2000/svg">
<path d="M1.65075 25.6215C3.85175 27.8225 7.42074 27.8225 9.62074 25.6215L13.8297 21.4135C14.4747 20.7675 15.5768 21.2245 15.5768 22.1375L15.5768 55.0535C15.5768 58.1665 18.0998 60.6905 21.2128 60.6905C24.3258 60.6905 26.8488 58.1675 26.8488 55.0535L26.8488 22.1375C26.8488 21.2255 27.9507 20.7695 28.5957 21.4135L32.8037 25.6215C35.0047 27.8225 38.5737 27.8225 40.7737 25.6215C42.9747 23.4205 42.9747 19.8515 40.7737 17.6505L24.4747 1.3515C22.6737 -0.450499 19.7517 -0.450499 17.9507 1.3515L1.65075 17.6505C-0.55025 19.8525 -0.55025 23.4205 1.65075 25.6215Z" fill="#404040"/>
</svg>
