<svg width="1706" height="457" viewBox="0 0 1706 457" fill="none" xmlns="http://www.w3.org/2000/svg">
<path d="M1079.33 2.13338C1030.67 4.66672 962.8 11.4667 913.467 18.6667C853.867 27.3334 808.133 35.8667 703.333 58C544.933 91.4667 487.2 99.3334 402 99.3334C317.6 99.3334 234.133 86.5334 140 59.3334C129.867 56.4 120.933 54 120.133 54C118.667 54 116.8 57.7334 115.2 63.8667C114.533 66.6667 115.2 67.0667 125.333 70C137.2 73.3334 136.933 73.0667 133.333 82.6667C131.867 86.4 131.867 86.4 117.6 82C113.467 80.6667 109.867 79.7334 109.733 79.8667C109.6 80 108 84.1334 106.267 89.0667L103.067 98L107.867 99.3334C110.533 100.133 121.733 103.2 132.667 106.133C157.333 112.8 156.267 112.4 155.6 113.6C154.933 114.667 144 156.267 103.467 311.6C94.5333 345.867 86.8 374.267 86.5333 374.667C85.8666 375.2 44.9333 364.933 26 359.333C20.9333 357.867 16 356.667 15.0666 356.667C12.8 356.667 8.9333 368.667 11.0666 369.333C12 369.6 17.2 371.067 22.6666 372.533C33.4666 375.2 33.3333 375.067 30.5333 384.133L29.2 388.4L17.6 385.2C11.3333 383.467 5.7333 382.533 5.19997 383.067C4.79997 383.6 3.46663 386.933 2.26663 390.4C0.666634 395.2 0.533301 396.933 1.7333 397.333C2.66663 397.6 9.59997 399.6 17.3333 401.867C119.467 430.667 202.533 445.6 308 454C336.933 456.4 431.733 457.2 466.133 455.467C576.933 449.733 644.133 439.467 856.667 396C1014 363.867 1087.47 355.067 1182.67 357.067C1298.13 359.467 1411.73 380 1554.8 424.133C1567.73 428.133 1578.8 431.333 1579.6 431.333C1580.4 431.333 1582.27 427.6 1583.87 422.933C1589.87 406.4 1596.4 389.333 1597.33 388.267C1597.87 387.733 1603.47 388.533 1609.87 390.133C1616.27 391.733 1621.73 392.667 1622 392.4C1622.4 392 1632.93 349.2 1645.47 297.2C1657.87 245.2 1670.8 191.867 1674 178.667C1677.2 165.467 1681.07 149.067 1682.67 142.267C1685.47 130.533 1685.87 129.733 1688.67 130.267C1691.33 130.8 1692.13 130 1694.53 123.733C1698 114.8 1698 114 1694.93 114C1691.07 114 1690.8 112.933 1692.93 106.4C1694.8 100.933 1695.33 100.4 1698.67 101.2C1702 101.867 1702.67 101.333 1704.4 96.9334C1705.47 94.2667 1706 91.6 1705.6 91.0667C1704.27 89.8667 1671.33 79.6 1638 70.1334C1500.93 31.0667 1371.87 9.20005 1235.73 2.00005C1205.6 0.400052 1110.67 0.533385 1079.33 2.13338ZM1165.33 22.8001V30.1334L1151.2 29.7334L1136.93 29.3334L1136.4 24.1334C1135.47 15.4667 1135.73 15.3334 1151.33 15.3334H1165.33V22.8001ZM1122.13 22.9334L1122 29.3334L1107.73 29.7334L1093.33 30.1334V23.3334V16.6667H1107.87H1122.27L1122.13 22.9334ZM1209.33 23.3334V30H1194.67H1180V23.3334V16.6667H1194.67H1209.33V23.3334ZM1078.67 24.5334V30.9334L1065.07 31.7334C1057.47 32.1334 1050.93 32.1334 1050.4 31.8667C1049.73 31.4667 1049.33 28.5334 1049.33 25.3334C1049.33 18.5334 1049.33 18.5334 1067.73 18.1334L1078.67 18.0001V24.5334ZM1252.8 19.6001C1253.07 20.0001 1252.93 23.0667 1252.53 26.5334L1251.6 32.8L1238.8 32C1231.73 31.4667 1225.33 30.9334 1224.67 30.6667C1223.87 30.5334 1223.47 27.6 1223.73 24.0001L1224.27 17.6001L1238.27 18.4001C1245.87 18.8001 1252.4 19.3334 1252.8 19.6001ZM1034.67 23.2001C1034.67 24.5334 1035.07 27.4667 1035.47 29.7334L1036.27 33.7334L1022.13 34.6667C1014.27 35.2 1007.73 35.4667 1007.47 35.2C1007.2 34.9334 1006.53 31.8667 1006.13 28.4L1005.2 22.1334L1012.93 21.6001C1033.07 20.4001 1034.67 20.5334 1034.67 23.2001ZM1285.73 21.4667L1296 22.4001V28.8C1296 32.2667 1295.6 35.3334 1295.07 35.6C1294.4 35.8667 1287.87 35.6 1280.4 34.9334L1266.67 33.7334V29.3334C1266.67 20.0001 1266.93 20.0001 1285.73 21.4667ZM992 32.1334V37.6L981.733 38.5334C976.133 39.0667 969.867 39.8667 967.867 40.2667C964.4 40.9334 964.133 40.6667 963.333 34.8C962.8 31.3334 962.667 28.1334 963.067 27.7334C964.8 26.1334 990 23.8667 990.933 25.3334C991.467 26.0001 992 29.2 992 32.1334ZM1337.07 26.9334C1339.87 27.6 1340 28.1334 1339.2 33.8667C1338.67 37.2 1338.27 40.1334 1338.13 40.2667C1338 40.4 1331.47 39.8667 1323.6 38.9334C1310 37.6 1309.2 37.3334 1309.87 34.8C1310.27 33.2 1310.67 30.2667 1310.67 28.1334V24.2667L1322.4 25.2001C1328.8 25.7334 1335.33 26.5334 1337.07 26.9334ZM948.667 34.8C949.067 38.2667 949.067 41.4667 948.4 42C947.067 43.2 922.533 46.4 921.6 45.4667C920.933 44.8 918.667 33.4667 919.2 33.0667C919.333 32.9334 925.467 31.8667 932.667 30.9334C940 29.8667 946.4 28.9334 946.8 28.8C947.333 28.6667 948.133 31.4667 948.667 34.8ZM1368.67 30.6667C1383.33 32.4 1383.07 32.2667 1382.27 38.9334C1382 42.1334 1381.33 45.0667 1381.07 45.4667C1380.4 46 1363.47 44 1356.4 42.5334C1353.2 41.8667 1352.4 38.1334 1354.13 31.6C1354.8 29.2 1355.73 28.6667 1358.53 29.2C1360.4 29.6 1365.07 30.1334 1368.67 30.6667ZM905.333 37.8667C905.333 39.2 905.733 42.1334 906.133 44.2667L906.933 48.2667L893.2 50.5334C885.733 51.7334 879.067 52.2667 878.533 51.7334C878 51.2 877.2 48.1334 876.667 45.0667L875.733 39.4667L882.267 38.6667C885.733 38.1334 890.8 37.2 893.333 36.6667C901.867 34.8 905.333 35.0667 905.333 37.8667ZM1414.53 37.3334C1420.67 38.4 1425.87 39.4667 1426.13 39.6C1426.53 40.1334 1424.53 51.3334 1423.87 51.8667C1423.6 52.1334 1417.2 51.4667 1409.73 50.2667C1394.93 48 1395.07 48.2667 1396.8 39.4667C1397.87 34.5334 1398.53 34.5334 1414.53 37.3334ZM861.867 44.2667C864.4 53.3334 864.267 55.2 861.067 55.8667C852.267 57.8667 835.867 60.1334 835.467 59.4667C834.667 58.2667 833.067 47.3334 833.6 47.2C833.733 47.2 839.733 46.1334 846.667 44.8C853.6 43.3334 859.733 42.2667 860.267 42.1334C860.8 42 861.467 43.0667 861.867 44.2667ZM1456.13 44.2667C1468.53 46.2667 1469.47 46.6667 1468.8 49.2C1468.4 50.8 1468 52.9334 1468 54C1467.87 59.4667 1466.27 59.7334 1452 57.3334L1438.4 54.9334L1439.2 50.1334C1439.6 47.4667 1440 44.5334 1440 43.6C1440 41.6 1440.13 41.6 1456.13 44.2667ZM1255.07 47.4667C1282.53 49.0667 1284 49.2 1284 51.7334C1284 53.2 1277.6 103.467 1269.87 163.2C1262.13 223.067 1254.67 281.6 1253.07 293.333C1251.6 305.067 1250.27 314.8 1250.13 314.933C1249.87 315.2 1241.07 314.8 1230.53 314C1202 312.133 1124.8 312.4 1094 314.667C1079.33 315.733 1066 316.667 1064.53 316.667C1061.07 316.667 1061.73 326.533 1056 178C1053.87 121.867 1051.73 69.8667 1051.33 62.5334L1050.67 48.9334L1064.93 48C1114.4 44.5334 1199.33 44.2667 1255.07 47.4667ZM819.2 52.2667C820.4 56.6667 821.6 63.3334 821.067 63.3334C820.8 63.3334 814.667 64.5334 807.333 65.8667C797.733 67.7334 793.867 68.1334 793.067 67.0667C791.867 64.8 790.4 56.5334 791.2 55.7334C791.867 55.0667 813.333 50.4 816.933 50.1334C817.733 50 818.8 51.0667 819.2 52.2667ZM1498.67 52.1334C1504.93 53.3334 1510.4 54.8 1510.93 55.2C1511.47 55.6 1511.2 58.8 1510.53 62.1334L1509.2 68.2667L1495.2 65.4667L1481.07 62.8L1481.87 57.4667C1483.33 48.8 1482.4 49.0667 1498.67 52.1334ZM968 57.8667C968 58.5334 972.267 96.5334 977.333 142.267C996 307.867 997.733 323.333 997.067 324C996.667 324.4 985.333 326.533 971.867 328.667C937.333 334.133 889.467 343.067 836.667 353.867C811.733 358.933 791.333 363.067 791.333 362.933C791.2 362.8 787.733 348.533 783.6 331.333C779.467 314.133 765.2 255.867 752 202C738.667 148.133 727.733 102.8 727.6 101.467C727.333 99.2 730.8 98.1334 761.333 91.8667C821.733 79.3334 889.733 67.4667 946.667 59.4667C969.2 56.4 968 56.4 968 57.8667ZM777.6 66.5334L778 71.7334L766.667 74.1334C750.933 77.4667 751.067 77.4667 749.467 71.6C748.667 68.9334 748 66 748 65.2C748 63.2 775.067 58.1334 776.267 60C776.8 60.8 777.333 63.7334 777.6 66.5334ZM1399.33 62.6667C1428.53 66.9334 1475.07 75.3334 1506.53 82.1334C1533.6 87.8667 1606.8 105.733 1609.2 107.333C1610.27 107.867 1597.2 148.4 1568.53 234.133C1545.33 303.333 1525.87 361.333 1525.2 362.933L1524.13 365.867L1514.4 363.2C1465.2 349.6 1416.67 338.667 1366.13 330C1350 327.333 1337.47 324.8 1338.27 324.533C1339.07 324.267 1344.8 272.933 1352.53 195.333C1359.6 124.533 1365.73 64.6667 1366.13 62.2667C1366.8 58.1334 1367.07 58 1371.73 58.6667C1374.4 59.0667 1386.93 60.9334 1399.33 62.6667ZM1542.67 61.4667C1548.93 62.8 1554.13 63.8667 1554.4 64.1334C1554.67 64.2667 1554.13 67.0667 1553.2 70.5334C1552.13 74.6667 1550.93 76.6667 1549.47 76.6667C1547.6 76.6667 1542.67 75.6 1526.8 72C1524 71.2 1523.73 70.6667 1524.53 65.7334C1525.6 58.8 1526.4 57.7334 1529.07 58.5334C1530.4 58.9334 1536.4 60.2667 1542.67 61.4667ZM735.067 73.7334C735.733 76.9334 736 79.7334 735.733 80C735.467 80.2667 730.533 81.4667 724.667 82.6667C718.8 83.8667 712.667 85.0667 711.2 85.4667C708.8 86.1334 708.133 85.3334 706.8 80C705.867 76.5334 705.467 73.4667 705.733 73.2C706.8 72.1334 728.667 67.4667 731.333 67.7334C733.333 68 734.267 69.4667 735.067 73.7334ZM1585.2 71.2C1591.33 72.6667 1596.53 74 1596.67 74.2667C1596.8 74.5334 1596.13 77.4667 1595.2 80.9334C1594 84.6667 1592.67 87.0667 1591.6 86.6667C1590.8 86.4 1584.4 84.9334 1577.73 83.3334C1565.47 80.4 1565.33 80.2667 1566.27 76.8C1568 69.2 1569.33 67.2 1571.73 67.8667C1572.93 68.2667 1579.07 69.7334 1585.2 71.2ZM692.267 83.2L692.667 89.2L681.333 91.4667C665.467 94.8 665.867 94.9334 664.133 87.8667C663.2 84.4 662.667 81.6 662.933 81.3334C664.267 80.4 690.133 75.8667 690.933 76.5334C691.467 76.9334 692 80 692.267 83.2ZM164.933 80.9334C171.733 82.6667 177.333 84.5334 177.333 85.3334C177.333 89.7334 174.267 96.6667 172.4 96.6667C169.467 96.6667 148.933 91.2 147.733 90.1334C146.267 88.9334 149.467 78 151.2 78C152 78 158.133 79.3334 164.933 80.9334ZM1625.07 80.8C1631.47 82.4 1637.2 84.1334 1637.73 84.6667C1638.27 85.2 1638 88.4 1637.07 91.8667C1635.87 96.4 1634.93 97.8667 1633.47 97.3334C1632.4 96.9334 1626.4 95.3334 1620.13 93.7334C1613.87 92.2667 1608.4 90.8 1608.13 90.5334C1607.2 89.7334 1611.07 78 1612.27 78C1612.93 78 1618.67 79.3334 1625.07 80.8ZM649.333 86.2667C649.333 87.2 649.733 90.1334 650.133 92.8L650.933 97.7334L639.2 99.8667C622.933 102.8 622.933 102.8 621.733 96.9334C621.2 94.2667 620.667 91.4667 620.667 90.8C620.667 90 625.733 88.5334 632 87.2C646.267 84.4 649.333 84.2667 649.333 86.2667ZM219.2 94.1334C219.6 94.4 219.067 97.6 218.267 101.067C217.333 105.067 216.267 107.2 215.2 106.8C214.4 106.533 208.4 105.2 202 103.867C195.6 102.667 190.133 100.8 189.733 99.8667C189.467 99.0667 189.733 95.8667 190.533 93.0667L192 87.7334L205.333 90.6667C212.667 92.2667 218.933 93.8667 219.2 94.1334ZM1667.07 92.1334C1673.73 94 1679.73 95.8667 1680.27 96.1334C1681.33 96.8 1677.6 108.667 1676.27 108.667C1675.33 108.667 1650.27 101.733 1649.6 101.333C1649.47 101.2 1650 99.0667 1650.8 96.5334C1651.6 94 1652.4 91.2 1652.8 90.2667C1653.33 88.1334 1652.8 88.1334 1667.07 92.1334ZM606.667 94.2667C606.667 95.2 607.067 98.1334 607.467 100.8L608.267 105.6L597.867 107.2C592 108.133 585.733 109.2 583.867 109.6C580.533 110.267 580.133 109.867 578.933 103.867C578.133 100.267 577.6 97.2 577.867 97.0667C578.4 96.5334 599.467 92.9334 603.067 92.8C605.067 92.6667 606.667 93.3334 606.667 94.2667ZM251.333 99.6C256.533 100.4 261.067 101.467 261.6 101.867C262.133 102.267 261.867 105.467 261.2 108.8L259.867 114.933L246.4 112.533C239.067 111.2 232.8 109.867 232.4 109.6C232.133 109.2 232.267 106.133 232.8 102.667C233.6 96.5334 233.733 96.4 237.867 97.2C240.133 97.7334 246.267 98.8 251.333 99.6ZM564.533 105.6C564.933 108.933 565.2 112 564.933 112.267C563.867 113.2 538 116.4 537.2 115.6C536.4 114.667 534.4 103.467 534.933 103.2C536.267 102.8 558.533 99.6 560.8 99.4667C563.2 99.3334 563.733 100.267 564.533 105.6ZM290.667 105.333C305.867 107.067 305.333 106.667 304.4 113.733C304 117.2 303.467 120.133 303.333 120.267C302.933 120.933 276 117.2 275.333 116.4C274.933 116.133 275.067 112.933 275.467 109.467C276.267 103.6 276.533 103.2 279.867 103.867C281.733 104.267 286.667 104.933 290.667 105.333ZM521.333 111.6C522.267 118.933 522.533 118.8 505.067 120.133L493.733 121.067L492.933 116.667C491.067 107.6 490.933 107.867 504.4 106.4C521.2 104.533 520.533 104.4 521.333 111.6ZM341.067 110H348.133L347.733 116.933L347.333 123.867L340 123.6C336 123.467 329.467 122.933 325.733 122.533L318.667 121.733V116.133C318.667 112.933 319.067 110 319.733 109.467C320.267 108.8 323.733 108.8 327.333 109.2C331.067 109.6 337.2 110 341.067 110ZM477.867 112.8C479.867 122.933 479.6 123.333 470.133 123.333C465.467 123.333 458.933 123.733 455.467 124.133L449.333 125.067V118.267V111.467L455.067 110.8C458.133 110.267 464 109.733 468 109.6C472 109.333 475.733 109.067 476.133 108.933C476.667 108.8 477.333 110.533 477.867 112.8ZM384.533 112.133L390.667 113.067V119.733V126.4L376.4 125.467C368.4 124.933 362 124.4 361.867 124.267C361.867 124.133 362 121.2 362.4 117.6L362.933 111.333H370.667C374.8 111.333 381.067 111.733 384.533 112.133ZM434.667 117.867C434.667 125.733 434.133 126 417.067 126H405.333V119.333V112.8L413.067 112.267C417.2 112 423.867 111.733 427.733 111.6L434.667 111.333V117.867ZM657.733 116.933C658.133 118.667 661.2 133.733 664.533 150.667C680.133 230.133 700.533 334.267 704.667 355.2C707.2 368 709.067 378.667 708.667 379.067C706.667 381.067 605.6 397.333 566 402C531.867 406 471.6 411.067 481.2 409.067C484.267 408.4 484.267 408.4 483.467 394.933C482.533 381.333 472.8 194.933 471.2 160.4L470.267 142.133L474.8 141.467C477.333 141.067 483.6 140.4 488.667 140C521.2 137.2 585.733 127.467 632 118.133C656.4 113.333 656.933 113.2 657.733 116.933ZM241.333 130.533C283.867 137.867 317.067 141.333 364.4 143.6L400 145.2V278.933V412.667H389.067C335.733 412.667 256.533 406.133 198.667 397.2C162.533 391.6 158.267 390.8 157.6 388.8C157.2 387.6 157.867 387.333 159.867 388C161.333 388.4 162.667 388.4 162.667 387.733C162.667 387.067 174.933 328.267 190 256.8C205.067 185.467 217.333 126.8 217.333 126.4C217.333 126.133 218.4 126.133 219.733 126.533C220.933 126.933 230.667 128.8 241.333 130.533ZM1334.27 324.133C1333.87 324.533 1332.67 324.667 1331.73 324.267C1330.67 323.867 1331.07 323.467 1332.53 323.467C1334 323.333 1334.8 323.733 1334.27 324.133ZM1147.73 336.4L1148.13 343.333H1133.47H1118.67V336.667V330.133L1131.73 329.733C1138.8 329.467 1145.33 329.333 1146 329.333C1146.8 329.467 1147.47 332.667 1147.73 336.4ZM1181.73 329.467C1191.73 330.4 1192 330.533 1192 333.867C1191.87 343.2 1191.73 343.333 1176.53 343.333H1162.67V336V328.667H1167.07C1169.6 328.667 1176.13 329.067 1181.73 329.467ZM1234 332C1234.8 332.133 1235.2 335.067 1234.93 338.667L1234.4 345.067L1220.4 344.267C1212.8 343.867 1206.13 343.333 1205.87 342.933C1205.47 342.533 1205.6 339.467 1206 336L1206.93 329.867L1219.87 330.667C1226.93 331.2 1233.33 331.733 1234 332ZM1104.27 336.933C1104.67 340.133 1104.53 343.067 1104.13 343.467C1103.73 344 1097.2 344.667 1089.73 345.2L1076 346V342.4C1076 340.267 1075.6 337.333 1075.2 335.733C1074.27 332.267 1076.27 331.867 1092.8 331.467L1103.73 331.333L1104.27 336.933ZM1269.73 334.667C1278.27 335.467 1278.67 335.733 1278.67 339.067C1278.67 341.067 1278.27 344 1277.87 345.733C1276.93 348.8 1276.67 348.8 1266.8 348C1249.2 346.533 1249.33 346.667 1249.33 340.133C1249.33 333.067 1250 332.4 1256 333.2C1258.53 333.6 1264.67 334.267 1269.73 334.667ZM1060.53 336.133C1060.93 337.333 1061.33 340.133 1061.33 342.667C1061.33 346.933 1061.33 347.067 1053.73 347.867C1049.47 348.4 1043.2 349.067 1039.87 349.467C1034.27 350.133 1033.6 349.867 1032.8 347.067C1032.4 345.333 1032 342.4 1032 340.4C1032 337.2 1032.53 336.8 1037.73 336.133C1056.8 333.6 1059.6 333.6 1060.53 336.133ZM1309.73 339.333C1315.47 340 1320.67 340.667 1321.33 340.667C1322.53 340.667 1321.47 351.467 1320.13 352.933C1319.73 353.467 1313.2 353.2 1305.6 352.4C1290.8 350.8 1291.33 351.2 1292.8 341.733C1293.6 337.467 1294.13 336.8 1296.53 337.333C1298 337.6 1304 338.533 1309.73 339.333ZM1018 346L1018.93 352.133L1005.2 353.867C997.733 354.8 991.2 355.067 990.667 354.4C990.133 353.867 989.333 350.8 988.8 347.867L988 342.4L1001.73 340.4C1009.2 339.333 1015.73 338.8 1016.27 339.2C1016.67 339.6 1017.47 342.667 1018 346ZM1357.07 346.267L1365.47 347.6L1364.67 353.2C1364.13 356.133 1363.33 359.2 1362.8 359.733C1362.27 360.267 1355.6 359.733 1348.13 358.533L1334.53 356.267L1335.47 350.8C1336.8 342.133 1334.8 342.533 1357.07 346.267ZM974.933 351.2C975.467 354.533 975.733 357.333 975.467 357.6C975.333 357.867 968.933 359.067 961.6 360.4L948 362.8L946.667 358.133C944.267 349.333 944.267 349.333 957.733 347.067C964.4 345.867 970.933 345.067 972 345.2C973.2 345.333 974.267 347.6 974.933 351.2ZM1396.4 353.467L1408.13 355.733L1407.33 361.2C1406.8 364.267 1405.87 367.2 1405.33 367.733C1404.8 368.4 1399.33 367.867 1393.2 366.667C1376.4 363.333 1377.07 363.733 1378 358.933C1379.6 350.933 1380.13 349.867 1382.4 350.533C1383.6 350.933 1390 352.267 1396.4 353.467ZM931.2 354.933C931.467 356.267 932.133 359.2 932.667 361.467L933.467 365.467L919.867 367.867C912.533 369.2 905.867 369.733 905.2 369.067C904.667 368.533 903.733 365.6 903.333 362.533L902.4 357.067L913.467 355.067C928.667 352.267 930.4 352.267 931.2 354.933ZM1437.6 362.133C1444.4 363.6 1450.13 364.933 1450.4 365.2C1450.53 365.467 1450.13 368.533 1449.2 372C1447.87 377.333 1447.2 378.133 1444.8 377.467C1443.33 377.2 1437.07 375.867 1431.07 374.533C1424.93 373.2 1420 371.6 1420 370.8C1420 367.467 1422.93 359.333 1424.13 359.333C1424.8 359.333 1430.93 360.533 1437.6 362.133ZM889.2 365.6C890 368.4 890.667 371.333 890.667 372.133C890.667 374.4 863.733 379.867 862.533 377.733C861.333 375.867 859.6 367.2 860.267 366.533C860.933 366 882.533 361.067 885.6 360.8C887.2 360.667 888.267 362.267 889.2 365.6ZM1481.73 372.8C1491.33 375.2 1493.33 376.133 1492.67 377.867C1492.13 379.067 1491.47 381.6 1491.07 383.733C1490.67 385.733 1489.87 387.6 1489.47 388C1488.67 388.4 1462.53 382.267 1461.73 381.467C1461.47 381.333 1462.27 378.267 1463.47 374.8C1465.07 370.133 1466.13 368.8 1467.87 369.2C1469.07 369.6 1475.33 371.2 1481.73 372.8ZM845.867 371.067C846.267 371.733 846.933 374.667 847.467 377.6L848.267 382.933L837.2 385.2C831.067 386.4 824.8 387.733 823.333 388.133C821.067 388.667 820.4 387.867 818.933 382.533C818 379.067 817.467 376.133 817.733 375.867C818.267 375.2 840.133 370.267 842.933 370.133C844.133 370 845.467 370.533 845.867 371.067ZM62.4 382.267C69.0666 383.867 74.6666 385.867 74.6666 386.533C74.6666 389.467 71.8666 398 70.9333 398C69.7333 398 44.8 392.267 44.1333 391.733C43.0666 390.933 47.0666 379.333 48.5333 379.333C49.3333 379.333 55.6 380.667 62.4 382.267ZM804.4 384.267C804.933 387.067 805.2 389.867 805.2 390.667C805.067 391.733 783.467 397.6 778.533 398C778 398 777.2 395.867 776.8 393.2C776.267 390.667 775.6 387.733 775.2 386.667C774.667 385.467 777.6 384.133 785.6 382.267C802.4 378.267 803.467 378.4 804.4 384.267ZM1529.73 385.6C1534.67 386.667 1535.07 387.733 1533.2 394C1531.47 399.733 1530 400.267 1523.2 398.133C1521.07 397.467 1515.87 395.867 1511.6 394.667C1503.87 392.533 1503.87 392.533 1504.67 388.267C1506.67 379.333 1506.93 379.2 1516.93 382.133C1522 383.6 1527.6 385.067 1529.73 385.6ZM762.533 394.667C763.333 397.6 763.467 400.267 762.933 400.8C762.267 401.467 742.267 405.733 736.8 406.533C736.133 406.533 734.8 403.867 734 400.267C732.4 394.267 732.4 394 735.2 393.333C754.8 388.8 759.467 387.867 760.267 388.533C760.667 388.933 761.733 391.733 762.533 394.667ZM103.6 391.467C110.8 393.067 116.8 394.533 117.067 394.667C117.333 394.8 116.8 397.867 115.867 401.333C114.133 408.4 116 408.133 96.4 403.867C88.8 402.267 86.6666 401.2 86.6666 399.333C86.6666 396.8 89.3333 388.667 90.1333 388.667C90.4 388.667 96.4 390 103.6 391.467ZM1564.4 396C1577.33 399.867 1577.07 399.467 1573.33 409.2L1572.13 412.4L1559.2 408.533C1552 406.4 1546 404.667 1545.6 404.667C1545.33 404.667 1545.47 403.2 1545.87 401.333C1547.6 394.667 1549.33 391.467 1550.93 392C1551.87 392.267 1558 394.133 1564.4 396ZM719.733 402.933C720.533 406.4 721.067 409.467 720.8 409.6C720.533 410 705.2 413.2 697.2 414.533L692.267 415.333L691.333 409.2C690.933 405.867 690.8 402.8 691.2 402.4C691.733 401.733 712.8 397.2 716.933 396.8C717.733 396.8 719.067 399.467 719.733 402.933ZM147.2 400.133C153.867 401.333 159.467 402.533 159.733 402.667C160.8 403.467 156.8 415.333 155.467 415.333C153.467 415.333 130.133 411.067 129.6 410.667C129.333 410.4 129.6 407.467 130 404.133C131.067 397.067 130.4 397.2 147.2 400.133ZM677.067 410.933C677.867 414.4 678.267 417.467 678.133 417.6C677.867 417.867 671.6 419.2 664.133 420.533C649.2 423.2 649.467 423.467 648.933 414.667L648.667 409.467L661.333 407.2C668.267 406 674.4 404.933 674.933 404.8C675.333 404.8 676.4 407.467 677.067 410.933ZM190.533 408C196.667 409.067 201.867 410.133 202.133 410.267C202.533 410.8 200.533 422 199.733 422.667C199.2 423.2 173.2 419.333 172.267 418.533C172 418.4 172.267 415.467 172.667 412.133C173.733 404.933 173.6 405.067 190.533 408ZM635.2 424.8C634.533 426 608.133 429.333 607.2 428.267C606.667 427.867 606 424.8 605.733 421.733L605.067 415.867L618.8 414L632.667 412L634.133 418C634.933 421.333 635.333 424.4 635.2 424.8ZM232.4 414.267L245.467 415.867L244.533 422C244 425.333 243.467 428.4 243.2 428.8C243.067 429.2 236.4 428.667 228.667 427.6L214.4 425.6L215.2 421.6C215.6 419.467 216 416.533 216 415.2C216 412.133 215.867 412.267 232.4 414.267ZM279.067 420.133C287.6 420.933 288 421.067 288 424.533C288 426.4 287.6 429.467 287.067 431.2C286.267 434.133 286 434.267 276.133 433.333C258.4 431.867 257.733 431.6 258.267 427.6C259.733 417.6 259.733 417.733 265.067 418.533C267.733 418.933 274 419.6 279.067 420.133ZM591.333 424.133C591.733 427.467 592 430.533 591.6 430.8C590.667 431.733 563.867 434.933 563.333 434.133C563.2 433.733 562.667 430.667 562.533 427.333L562 421.333L574 419.867C580.667 419.067 586.933 418.267 588.133 418.133C589.733 418 590.667 419.6 591.333 424.133ZM319.733 424C329.867 424.8 332 425.333 331.467 426.933C331.067 428 330.667 431.067 330.667 433.6V438.267L316.4 437.333C308.4 436.8 301.867 436.267 301.6 436C301.333 435.867 301.6 432.533 302.133 428.8C302.8 423.333 303.467 422 305.2 422.533C306.4 422.933 312.933 423.6 319.733 424ZM548.267 429.467C548.533 432.8 548.4 435.733 548 436C547.467 436.267 541.2 436.933 533.733 437.467L520.4 438.4L519.6 434C517.733 425.2 518 424.8 526.4 424.267C530.533 424 537.067 423.733 540.8 423.6L547.733 423.333L548.267 429.467ZM363.733 426.933L374.667 427.733V434.133V440.667H368.133C364.667 440.667 358 440.267 353.467 439.867L345.333 438.933V432.533C345.333 425.067 344.267 425.333 363.733 426.933ZM504.533 428.933C504.933 430.667 505.333 433.6 505.333 435.467C505.333 438.667 504.667 439.067 499.2 439.867C495.733 440.267 489.2 440.667 484.533 440.667H476V434V427.467L485.067 426.933C490 426.667 496.133 426.4 498.8 426.267C502.8 426 503.867 426.533 504.533 428.933ZM410.4 428.667H417.333V435.333V442H403.467C395.733 442 389.2 441.6 388.933 440.933C388.667 440.4 388.667 437.067 389.067 433.467L389.6 426.933L396.533 427.867C400.267 428.267 406.533 428.667 410.4 428.667ZM461.333 434.667V442H446.667H432V435.333V428.8L444.4 428.267C451.067 428.133 457.733 427.733 459.067 427.6C460.933 427.333 461.333 428.4 461.333 434.667Z" fill="black"/>
<path d="M284.5 303.2H289C291.5 303.2 292.75 304.5 292.75 307.1C292.75 309.7 291.5 311 289 311H272.35C269.95 311 268.75 309.7 268.75 307.1C268.75 304.5 269.95 303.2 272.35 303.2H275.95V223.25H272.35C269.95 223.25 268.75 221.95 268.75 219.35C268.75 216.65 269.95 215.3 272.35 215.3H318.85C321.45 215.3 323.25 215.95 324.25 217.25L333.25 227.75C333.95 228.65 334.3 229.5 334.3 230.3C334.3 232.1 333.35 233 331.45 233C330.25 233 329.25 232.6 328.45 231.8L317.65 222.5H284.5V239.45H311.95C311.25 238.35 310.9 237.35 310.9 236.45C310.9 235.55 311.25 234.75 311.95 234.05C312.75 233.25 313.8 232.85 315.1 232.85C316.4 232.85 317.4 233.4 318.1 234.5L324.7 245.15C325.2 245.95 325.45 246.7 325.45 247.4C325.45 249.6 324.4 250.7 322.3 250.7C321 250.7 319.9 250.1 319 248.9L317.2 246.65H284.5V303.2Z" fill="black"/>
<path d="M571.7 284.2V204.25H567.35C564.95 204.25 563.75 202.95 563.75 200.35C563.75 197.65 564.95 196.3 567.35 196.3H584.6C587.1 196.3 588.35 197.65 588.35 200.35C588.35 202.95 587.1 204.25 584.6 204.25H580.25V284.2H584.6C587 284.2 588.2 285.5 588.2 288.1C588.2 290.7 587 292 584.6 292H567.35C564.95 292 563.75 290.7 563.75 288.1C563.75 285.5 564.95 284.2 567.35 284.2H571.7Z" fill="black"/>
<path d="M869.5 253.2H892.45L907.9 231.9C908.4 231.2 909.05 230.85 909.85 230.85C910.75 230.85 911.45 231.1 911.95 231.6C912.55 232.1 912.85 232.7 912.85 233.4C912.85 234 912.65 234.7 912.25 235.5L901.3 258.6C900.4 260.2 899 261 897.1 261H857.35C854.95 261 853.75 259.7 853.75 257.1C853.75 254.5 854.95 253.2 857.35 253.2H860.95V173.25H857.35C854.95 173.25 853.75 171.95 853.75 169.35C853.75 166.65 854.95 165.3 857.35 165.3H873.1C875.6 165.3 876.85 166.65 876.85 169.35C876.85 171.95 875.6 173.25 873.1 173.25H869.5V253.2Z" fill="black"/>
<path d="M1204.6 212.2H1208.5C1210.9 212.2 1212.1 213.5 1212.1 216.1C1212.1 218.7 1210.9 220 1208.5 220H1192.45C1191.35 220 1190.45 219.65 1189.75 218.95C1189.15 218.15 1188.85 217.2 1188.85 216.1C1188.85 213.5 1190.05 212.2 1192.45 212.2H1196.05V132.85L1164.4 155.8C1163.4 156.6 1162.4 157 1161.4 157C1160.4 157 1159.3 156.65 1158.1 155.95L1127.8 137.35V212.2H1131.25C1133.65 212.2 1134.85 213.5 1134.85 216.1C1134.85 218.7 1133.65 220 1131.25 220H1116.1C1113.7 220 1112.5 218.7 1112.5 216.1C1112.5 213.5 1113.7 212.2 1116.1 212.2H1119.85V132.25H1115.35C1112.95 132.25 1111.75 130.95 1111.75 128.35C1111.75 127.15 1112.05 126.2 1112.65 125.5C1113.35 124.7 1114.25 124.3 1115.35 124.3H1120C1121.8 124.3 1123.65 124.85 1125.55 125.95L1162.3 148.45L1193.05 125.95C1194.65 124.85 1196 124.3 1197.1 124.3H1208.35C1210.85 124.3 1212.1 125.65 1212.1 128.35C1212.1 130.95 1210.85 132.25 1208.35 132.25H1204.6V212.2Z" fill="black"/>
<path d="M1425.5 237.55C1425.5 234.15 1426.4 231.4 1428.2 229.3C1430 227.1 1431.8 226 1433.6 226C1435.5 226 1436.95 226.65 1437.95 227.95C1439.05 229.25 1439.6 230.8 1439.6 232.6C1439.6 236.3 1438.25 239.25 1435.55 241.45C1436.65 245.75 1438.9 248.95 1442.3 251.05C1445.8 253.05 1449.65 254.05 1453.85 254.05C1460.05 254.05 1464.95 251.95 1468.55 247.75C1472.25 243.55 1474.1 238.85 1474.1 233.65C1474.1 228.35 1472.1 223.8 1468.1 220C1465.1 217.3 1461.25 214.4 1456.55 211.3L1448.9 206.35C1443.4 202.85 1439.2 199.25 1436.3 195.55C1433.4 191.75 1431.95 187.1 1431.95 181.6C1431.95 176 1434.05 171.3 1438.25 167.5C1442.45 163.6 1447.4 161.65 1453.1 161.65C1458.9 161.65 1463.75 162.95 1467.65 165.55C1471.55 168.15 1473.5 171.3 1473.5 175C1473.5 176.8 1472.95 178.25 1471.85 179.35C1470.85 180.35 1469.35 180.85 1467.35 180.85C1465.35 180.85 1463.4 180 1461.5 178.3C1459.7 176.6 1458.8 175.05 1458.8 173.65C1458.8 172.25 1458.95 171.1 1459.25 170.2C1458.35 168.5 1456.25 167.65 1452.95 167.65C1449.65 167.65 1446.7 168.95 1444.1 171.55C1441.6 174.15 1440.35 177.05 1440.35 180.25C1440.35 185.45 1445.05 191.15 1454.45 197.35L1462.1 202.45C1465.4 204.75 1467.85 206.55 1469.45 207.85C1471.15 209.05 1473.25 210.95 1475.75 213.55C1480.55 218.55 1482.95 225.15 1482.95 233.35C1482.95 241.55 1480.1 248.15 1474.4 253.15C1468.7 258.15 1461.95 260.65 1454.15 260.65C1446.35 260.65 1439.6 258.3 1433.9 253.6C1428.3 248.8 1425.5 243.45 1425.5 237.55Z" fill="black"/>
</svg>
