<svg xmlns="http://www.w3.org/2000/svg" version="1.1" xmlns:xlink="http://www.w3.org/1999/xlink" xmlns:svgjs="http://svgjs.dev/svgjs" viewBox="0 0 800 800"><defs><filter id="ssspot-filter" x="-20%" y="-20%" width="140%" height="140%" filterUnits="objectBoundingBox" primitiveUnits="userSpaceOnUse" color-interpolation-filters="sRGB">
	<feTurbulence type="turbulence" baseFrequency="0.022 0.218" numOctaves="2" seed="193" stitchTiles="stitch" x="0%" y="0%" width="100%" height="100%" result="turbulence"></feTurbulence>
	<feGaussianBlur stdDeviation="0 3" x="0%" y="0%" width="100%" height="100%" in="turbulence" edgeMode="duplicate" result="blur"></feGaussianBlur>
	<feDisplacementMap in="SourceGraphic" in2="blur" scale="32" xChannelSelector="R" yChannelSelector="B" x="0%" y="0%" width="100%" height="100%" result="displacementMap"></feDisplacementMap>
</filter></defs><rect width="100%" height="100%" fill="hsl(0, 0%, 100%)"></rect><g fill="hsl(50, 98%, 50%)" filter="url(#ssspot-filter)"><circle r="7.193120855848459" cx="255.139978120792" cy="333.22476184241276" opacity="0.49627245757998184"></circle><circle r="4.816751664777483" cx="644.8432046223778" cy="626.2132069021404" opacity="0.854689144710776"></circle><circle r="5.493492939026726" cx="495.33774612711426" cy="433.31410918396784" opacity="0.9499108336276922"></circle><circle r="3.429005519246293" cx="523.6360171431867" cy="602.8028660877067" opacity="0.14065003976085674"></circle><circle r="4.554986545646209" cx="311.7217328795606" cy="613.0672553248061" opacity="0.4823630675556323"></circle><circle r="4.561980976638725" cx="323.6329289246116" cy="245.53493219041812" opacity="0.6255635109641231"></circle><circle r="4.464454057080889" cx="68.79353416075075" cy="410.68397913834707" opacity="0.607341210819069"></circle><circle r="4.576161861921225" cx="544.5314214796019" cy="103.29623344170044" opacity="0.4701283825816057"></circle><circle r="6.494668493207383" cx="120.47193393313981" cy="483.1980734250112" opacity="0.4369098869762612"></circle><circle r="7.180675489582283" cx="425.8955794200225" cy="51.62463290505878" opacity="0.5646455454414389"></circle><circle r="4.475536195018241" cx="691.5950698167054" cy="379.50080312969715" opacity="0.3217975832697354"></circle><circle r="4.177367448348956" cx="698.4202399363076" cy="204.45466816333374" opacity="0.308926235898647"></circle><circle r="2.9950013215494304" cx="27.53262400406971" cy="499.62337800732854" opacity="0.7435796354727023"></circle><circle r="4.89342727814245" cx="43.78187091002264" cy="681.6160791197813" opacity="0.25940208272811677"></circle><circle r="5.901426873753047" cx="369.9127086336672" cy="584.8331624393136" opacity="0.8853472517079479"></circle><circle r="7.362640248437812" cx="457.5044867951608" cy="753.0588272368685" opacity="0.6793246199785837"></circle><circle r="3.845559590017742" cx="18.91163256015007" cy="789.8500835744032" opacity="0.4916225820292499"></circle><circle r="6.022498766437559" cx="360.7355071894409" cy="554.5662898668394" opacity="0.9920740774261335"></circle><circle r="3.859527415291099" cx="25.365957062437655" cy="526.7862696760565" opacity="0.48735571535814326"></circle><circle r="6.980269914643495" cx="354.57180997239897" cy="449.59731197752666" opacity="0.509569925030483"></circle><circle r="5.788748578866086" cx="18.267276443667193" cy="58.09850246588955" opacity="0.22644032633551175"></circle><circle r="2.9621510959521253" cx="366.9985802957799" cy="631.5467846704627" opacity="0.5496348874231889"></circle><circle r="5.917847516048482" cx="47.29200910870702" cy="439.0427771108109" opacity="0.6710822557681626"></circle><circle r="4.976377211259638" cx="731.8793378712351" cy="287.64520605667764" opacity="0.32428302373277185"></circle><circle r="11.336850938082533" cx="618.363176144953" cy="186.38590305894556" opacity="0.4957199346508081"></circle><circle r="7.476444981037086" cx="474.3207305152946" cy="31.83664799680713" opacity="0.6706975478276332"></circle><circle r="5.577239503414642" cx="336.03331272846185" cy="592.5570957361457" opacity="0.9391611286145813"></circle><circle r="6.314521233361342" cx="692.9685659712505" cy="545.8434894265534" opacity="0.891708000403734"></circle><circle r="4.434624259105599" cx="766.7335829167974" cy="47.34273459468516" opacity="0.8998369755968735"></circle><circle r="3.95196832859562" cx="789.51745491875" cy="279.18238725726496" opacity="0.5237892502997304"></circle><circle r="3.6200793089687466" cx="754.736793420417" cy="580.9435488872765" opacity="0.9722891762659497"></circle><circle r="9.138625793545689" cx="258.8141356689304" cy="489.32589289971503" opacity="0.14936274293571014"></circle><circle r="8.034484021575219" cx="594.5998752641123" cy="340.62528497612396" opacity="0.14732924282529938"></circle><circle r="5.477124550597103" cx="34.946903002262204" cy="181.58871067267702" opacity="0.5308108671462854"></circle><circle r="7.052069730889526" cx="227.50037123594612" cy="595.7563307395709" opacity="0.5839260996656995"></circle><circle r="5.669871730591821" cx="192.74928049326098" cy="248.25045065786196" opacity="0.958265867034691"></circle><circle r="4.518025651401136" cx="750.1541887433516" cy="531.2684584703059" opacity="0.3961908162677862"></circle><circle r="5.721669445514442" cx="582.4814622422359" cy="637.6944535882799" opacity="0.8593073102321326"></circle><circle r="5.970910495613445" cx="754.7601947896947" cy="737.3807608800737" opacity="0.48812167249317373"></circle><circle r="6.050405955814522" cx="282.9686648937102" cy="13.513530377864758" opacity="0.8248960854905077"></circle><circle r="7.755303918044425" cx="67.71490587494178" cy="353.87912726104935" opacity="0.6884112835515759"></circle><circle r="6.396128572507179" cx="762.3708649171485" cy="122.1632019712159" opacity="0.700784160369802"></circle><circle r="6.5203205714297185" cx="625.6931391683567" cy="562.2029030137927" opacity="0.635611712710892"></circle><circle r="7.108605576063516" cx="50.232093623458816" cy="770.6280751556956" opacity="0.6403295581090442"></circle><circle r="5.139956776397387" cx="414.69529174194093" cy="761.98225032964" opacity="0.19085759206495298"></circle><circle r="6.1504485366961505" cx="644.0789696097446" cy="229.55690753509467" opacity="0.4937575360041965"></circle><circle r="4.543765890380666" cx="60.230664347527764" cy="68.0824502522095" opacity="0.6337859794990135"></circle><circle r="6.5507041706892934" cx="388.3145663325227" cy="169.3214914242338" opacity="0.5334395106431543"></circle><circle r="4.555022765341333" cx="77.09704059276696" cy="117.77348614500293" opacity="0.5649507487835088"></circle><circle r="6.393514517891382" cx="114.21583133855039" cy="647.802126566456" opacity="0.3411936060212337"></circle><circle r="4.366628704516451" cx="283.1558766751164" cy="636.2253022951476" opacity="0.7939436573677672"></circle><circle r="7.487065122288687" cx="124.85392586820456" cy="363.7989189914497" opacity="0.9537548675891334"></circle><circle r="5.995974237886915" cx="224.73462371772854" cy="393.4023247475206" opacity="0.8761975355287444"></circle><circle r="7.235437224840988" cx="504.9844409403974" cy="700.9398854842306" opacity="0.128976987194103"></circle><circle r="7.948255360854439" cx="34.002214064484406" cy="731.4522569160979" opacity="0.8143077107873942"></circle><circle r="4.271187172741488" cx="119.88621022797848" cy="760.7083508760317" opacity="0.19461167267807655"></circle><circle r="3.373428463413318" cx="786.9656341690412" cy="469.5376346734335" opacity="0.6019952218442943"></circle><circle r="7.679664617892599" cx="235.11948917947726" cy="57.03259618982327" opacity="0.6888800086624663"></circle><circle r="4.432859583431826" cx="466.22329014212704" cy="611.9942975993303" opacity="0.1195540551838278"></circle><circle r="5.281324216227653" cx="335.3342193770747" cy="650.081570864087" opacity="0.5441975823875169"></circle><circle r="9.259066593302652" cx="139.54916537694606" cy="182.8579490427819" opacity="0.7207362184122684"></circle><circle r="6.4908968427807965" cx="158.24003090533256" cy="351.678119323806" opacity="0.9739893724194578"></circle><circle r="4.777560789701385" cx="78.8338062222828" cy="242.17322238800153" opacity="0.5259317311475002"></circle><circle r="4.707693150967194" cx="74.60236697356535" cy="199.20339204900276" opacity="0.5397925565785497"></circle><circle r="4.961283535417669" cx="503.16994506958184" cy="101.85735678706415" opacity="0.6438451990728725"></circle><circle r="6.039577954939068" cx="16.40797376241064" cy="401.1274840835942" opacity="0.2947818099291688"></circle><circle r="6.109035604764292" cx="329.50580871824343" cy="68.10425840227386" opacity="0.5679864013475833"></circle><circle r="4.239076695519081" cx="248.82272091172942" cy="573.1845802343087" opacity="0.6037830679926705"></circle><circle r="5.130488649580345" cx="218.29513888303043" cy="294.91472516251855" opacity="0.15325990068245066"></circle><circle r="3.11819515416084" cx="72.50696624419844" cy="790.1091796661714" opacity="0.26107215538518985"></circle><circle r="4.7659393727725385" cx="783.0284786798148" cy="366.26393320166886" opacity="0.5287369132747631"></circle><circle r="4.941018757052387" cx="202.40512250259016" cy="219.48325108205515" opacity="0.4743096548427076"></circle><circle r="3.746720998108457" cx="11.571970513257314" cy="713.6353050621279" opacity="0.29042745222176003"></circle><circle r="4.035343524678548" cx="368.31662983057544" cy="255.74195645874337" opacity="0.9885450971704287"></circle><circle r="5.110363965514195" cx="122.54649822922958" cy="734.5987868638208" opacity="0.49027408757186774"></circle><circle r="7.882579087910053" cx="195.94550336123677" cy="353.4840537961597" opacity="0.8808945872607173"></circle><circle r="6.424035698755343" cx="370.668600029353" cy="17.518987504261013" opacity="0.6449773718676103"></circle><circle r="7.248698055265756" cx="647.2260525239611" cy="77.13417786327452" opacity="0.6967306321084856"></circle><circle r="2.8135321612760147" cx="787.748864327681" cy="198.6537822293373" opacity="0.49454867003874536"></circle><circle r="5.462762490477062" cx="282.68275630212656" cy="257.56372582705075" opacity="0.6292916672046365"></circle><circle r="6.597683062941542" cx="431.53313127938605" cy="611.4402369448862" opacity="0.6908889499405438"></circle><circle r="4.625784210026693" cx="349.40738656683476" cy="789.1795691863368" opacity="0.24784736126590282"></circle><circle r="10.788831927555924" cx="177.85535166366094" cy="150.11696371132075" opacity="0.6859710982193584"></circle><circle r="5.63445582069179" cx="742.5394885973338" cy="238.61531849023245" opacity="0.7336889168767183"></circle><circle r="4.500113851129947" cx="375.475882239698" cy="657.6136743937421" opacity="0.42269141848264413"></circle><circle r="8.450095796936218" cx="16.929163358467356" cy="18.185778251490863" opacity="0.6327648475402674"></circle><circle r="8.579300234665224" cx="504.6036531652387" cy="213.72354897866396" opacity="0.6544483254659971"></circle><circle r="5.241048297185568" cx="206.22298959556827" cy="703.5463399964378" opacity="0.4201152285809917"></circle><circle r="5.661274590531449" cx="221.94575828931724" cy="549.8386721724694" opacity="0.6821776600329965"></circle><circle r="7.099436626133141" cx="244.88561039856089" cy="273.5746530024204" opacity="0.7291484540477702"></circle><circle r="6.387056907331431" cx="108.21246523793047" cy="410.3313324518119" opacity="0.8898856893714502"></circle><circle r="6.622462184117948" cx="684.9536058012156" cy="419.89466329929036" opacity="0.1290232383499263"></circle><circle r="2.935361351360834" cx="790.3919187574332" cy="18.174002169602403" opacity="0.3824881671111602"></circle><circle r="6.4058920963764585" cx="274.47318122315994" cy="125.88064619479701" opacity="0.7204245158642035"></circle><circle r="7.049370910244126" cx="517.8675534316098" cy="157.57582232071562" opacity="0.8652628622854307"></circle><circle r="7.609615238856184" cx="402.88796130509877" cy="561.9447570639985" opacity="0.5852688826003598"></circle><circle r="10.27872867086874" cx="394.8504965677627" cy="289.75754392489273" opacity="0.9503003809748886"></circle><circle r="6.310031024334336" cx="108.67686674029805" cy="129.39099801084498" opacity="0.9727204460431875"></circle><circle r="4.130015531775348" cx="534.5955410988206" cy="447.8017521058828" opacity="0.49748060103258784"></circle><circle r="5.929924870416918" cx="776.428648397226" cy="437.1745581559463" opacity="0.44705956127337243"></circle><circle r="6.910054879230573" cx="703.5351426444279" cy="661.5964044231307" opacity="0.6353147028684171"></circle><circle r="3.3600373465619633" cx="725.2467133303203" cy="253.0222372137171" opacity="0.16359155326628136"></circle><circle r="5.481988027483615" cx="49.80958618206882" cy="226.15060099278838" opacity="0.8219173300358503"></circle><circle r="3.786870403304388" cx="753.8718630479992" cy="265.0963815538563" opacity="0.2938665745634481"></circle><circle r="5.231559332466869" cx="783.4348886141512" cy="143.49526709995527" opacity="0.17934836762552708"></circle><circle r="7.712057395129712" cx="147.91414120753308" cy="592.4134138869816" opacity="0.6699494709579901"></circle><circle r="6.32000786312706" cx="268.79521435729725" cy="549.5256223120632" opacity="0.9587047111081513"></circle><circle r="6.431606907247781" cx="709.8092554078156" cy="522.5387985642934" opacity="0.6682546173338229"></circle><circle r="4.9394962576497115" cx="216.1923257561798" cy="481.443118318028" opacity="0.772732628335423"></circle><circle r="6.692025389541406" cx="698.9455630076001" cy="80.55890749203691" opacity="0.40457813922938524"></circle><circle r="7.160177037247369" cx="227.0114302458527" cy="144.70681890203753" opacity="0.13301968662213265"></circle><circle r="8.273062051307573" cx="254.277172001249" cy="89.48038596305456" opacity="0.8869336485684918"></circle><circle r="9.14190945075082" cx="447.24474446865895" cy="519.9521832673092" opacity="0.45702137605960724"></circle><circle r="5.271961920500389" cx="96.97466593609343" cy="567.8147218624451" opacity="0.8504223979130621"></circle><circle r="7.1187756124653525" cx="306.19932746192524" cy="97.60529004445152" opacity="0.5877641907621521"></circle><circle r="4.605999802042034" cx="446.403452555897" cy="124.62415540351176" opacity="0.1401781743768375"></circle><circle r="6.224048868681454" cx="632.9145139089301" cy="472.0815750915079" opacity="0.7108241044456592"></circle><circle r="3.4156474582707" cx="281.9726283877783" cy="585.510873001136" opacity="0.5217778200567892"></circle><circle r="4.333097064105304" cx="368.60821504448336" cy="188.1199702298663" opacity="0.8298436549509984"></circle><circle r="6.671708186334775" cx="649.7815179300978" cy="17.549600965704467" opacity="0.34666861420943795"></circle><circle r="4.049204045727961" cx="682.1712121984754" cy="618.3900525288515" opacity="0.3979067487506085"></circle><circle r="8.606625575471092" cx="142.51880086281005" cy="545.1204361950639" opacity="0.12496698791841729"></circle><circle r="5.9978696586142775" cx="632.8038734285022" cy="779.1015125760003" opacity="0.7000138068967717"></circle><circle r="5.957564827311652" cx="89.75643562517358" cy="439.4600993717083" opacity="0.5279636432864457"></circle><circle r="3.421161950723612" cx="197.78502955042873" cy="384.8112753113916" opacity="0.15085538302772333"></circle><circle r="5.881977453390241" cx="757.2233487197647" cy="480.26324853403565" opacity="0.3374194748284034"></circle><circle r="4.850839251347055" cx="666.7866845123568" cy="195.48589083053753" opacity="0.18393379171842225"></circle><circle r="5.135075032231438" cx="152.74241024808993" cy="772.023509455636" opacity="0.2497187069591314"></circle><circle r="6.340020930083311" cx="314.69261990236737" cy="698.7848920926109" opacity="0.6496966861138463"></circle><circle r="4.522353349409283" cx="333.47529441198174" cy="771.013173592567" opacity="0.24259295491421787"></circle><circle r="8.616908955903941" cx="401.00801079120635" cy="395.7445586754504" opacity="0.9262646217023724"></circle><circle r="6.549011590188094" cx="158.1281406867347" cy="385.0816739543599" opacity="0.7984044247639728"></circle><circle r="5.844202656229581" cx="465.1457231064739" cy="444.57383734632674" opacity="0.14132318445076406"></circle><circle r="6.473885163098887" cx="417.0226343225074" cy="119.00674279856797" opacity="0.8909961136654176"></circle><circle r="6.565125498517999" cx="47.89201699835426" cy="294.16653853730713" opacity="0.2841806429578442"></circle><circle r="5.24943710009888" cx="360.90354592589233" cy="692.2686610231891" opacity="0.400719492495633"></circle><circle r="3.8412097670317733" cx="372.7045432487041" cy="80.43696801581314" opacity="0.7979710524476401"></circle><circle r="7.502239777065503" cx="654.6788488298221" cy="590.5602071968528" opacity="0.6155876267815689"></circle><circle r="5.15187964681605" cx="786.7817428115775" cy="108.68823632795429" opacity="0.8569641283952824"></circle><circle r="6.343845976806018" cx="473.31622281547203" cy="249.95909397571046" opacity="0.22664215796872092"></circle><circle r="6.1225139835469715" cx="101.89350196709113" cy="302.62615499907486" opacity="0.40232800674846214"></circle><circle r="6.096023980854353" cx="159.1561219530987" cy="306.9038143084592" opacity="0.9335640934062096"></circle><circle r="4.818116725663543" cx="726.5768271059393" cy="555.3090740425853" opacity="0.12507847568077096"></circle><circle r="5.757013227915765" cx="127.85854228342656" cy="328.90617546079744" opacity="0.5800804271983135"></circle><circle r="4.321613492967791" cx="406.90992126599315" cy="526.8604197756715" opacity="0.956133598861044"></circle><circle r="5.003333729614716" cx="646.2429782972379" cy="441.7797600877643" opacity="0.586117195256795"></circle><circle r="7.59665947865493" cx="429.52118797266974" cy="263.61204557800914" opacity="0.40718643839156143"></circle><circle r="8.54727968891018" cx="187.92437451326018" cy="89.24198173943721" opacity="0.5019048135467505"></circle><circle r="5.933932584671534" cx="702.1298307781077" cy="128.46555707297168" opacity="0.44462947162413835"></circle><circle r="8.350080902830001" cx="449.41266664996925" cy="311.07220064130246" opacity="0.5327820714304246"></circle><circle r="7.896127429023135" cx="457.1199146365503" cy="200.98627131806643" opacity="0.9824150950796489"></circle><circle r="4.670161676627864" cx="670.6948608898192" cy="658.0531043378375" opacity="0.4287869081613441"></circle><circle r="6.574502138867822" cx="154.80859155595294" cy="90.32035105985302" opacity="0.6168135630599997"></circle><circle r="5.707896221807051" cx="623.965500857399" cy="357.5389736106694" opacity="0.9973093530306387"></circle><circle r="4.448219251947126" cx="46.426076887598725" cy="38.18894834194262" opacity="0.14096214621436778"></circle><circle r="8.561840187188503" cx="271.67734225831236" cy="446.15401553588487" opacity="0.40148081947088743"></circle><circle r="4.327124610652036" cx="103.67719082265843" cy="271.4790173907497" opacity="0.9455680536933616"></circle><circle r="4.500978913153818" cx="756.9749502291446" cy="186.19480040457455" opacity="0.5006662755867558"></circle><circle r="5.131302246522903" cx="86.17208854859962" cy="43.06957857860138" opacity="0.17857094344085625"></circle><circle r="9.406922328156828" cx="297.1055085934052" cy="482.9632925428592" opacity="0.41153501092044"></circle><circle r="4.947653031694671" cx="656.3464166448867" cy="495.21718917457554" opacity="0.9083907810758657"></circle><circle r="3.7295411620291574" cx="47.89062540782981" cy="116.96404306855392" opacity="0.30556067013080046"></circle><circle r="7.181929100457223" cx="476.741629622213" cy="481.3223840137283" opacity="0.11554962752641704"></circle><circle r="8.334654409136885" cx="312.35663395532566" cy="328.81928660010965" opacity="0.560280041507163"></circle><circle r="6.721067045843452" cx="477.81846499030183" cy="84.78519835629156" opacity="0.3531435943710781"></circle><circle r="5.803543408280506" cx="739.9667255813284" cy="671.7782118436018" opacity="0.3599930875113371"></circle><circle r="5.975877270203761" cx="441.84055118460253" cy="553.3474171698766" opacity="0.6426567820667025"></circle><circle r="5.331602453673868" cx="343.0547493228373" cy="480.65061189850474" opacity="0.5181022961969477"></circle><circle r="5.557403782224497" cx="546.595644693131" cy="283.37132119319665" opacity="0.680438133290393"></circle><circle r="5.621155051468602" cx="787.383104561543" cy="320.57378737230067" opacity="0.3620774549125687"></circle><circle r="7.558999969105777" cx="640.2343878739509" cy="286.3452311515878" opacity="0.10462070367148704"></circle><circle r="4.802611272962347" cx="717.0425874471332" cy="175.29836428555456" opacity="0.9658677326846689"></circle><circle r="4.90393189350205" cx="765.1598795235662" cy="289.77055921907976" opacity="0.9038099989354376"></circle><circle r="4.303525396528157" cx="598.5662629931645" cy="582.4493011122079" opacity="0.21861341019313796"></circle><circle r="4.808846823096677" cx="701.0460354175625" cy="231.79021128302594" opacity="0.25905088298035883"></circle><circle r="3.250757274054167" cx="9.20800378430955" cy="474.2041261228354" opacity="0.8214015921506197"></circle><circle r="3.7094974396620812" cx="87.97792545223591" cy="505.7050076429011" opacity="0.3694771200090925"></circle><circle r="7.608248710640094" cx="748.6365531419256" cy="362.6875158581135" opacity="0.5445847342731417"></circle><circle r="8.606767301810182" cx="587.7845004391546" cy="741.4317722147132" opacity="0.23093576337776767"></circle><circle r="7.258239995902876" cx="19.590108836038464" cy="134.25525232187977" opacity="0.3692300294585751"></circle><circle r="5.529373018449094" cx="399.01591960565025" cy="215.31869510019803" opacity="0.2103428649903477"></circle><circle r="4.458721045671222" cx="435.41941954763956" cy="786.950983380409" opacity="0.5086887274139698"></circle><circle r="8.911776486643271" cx="662.2134095890776" cy="345.04212765442605" opacity="0.3060742262860609"></circle><circle r="4.826824511249072" cx="778.6644793947369" cy="219.3848805868575" opacity="0.5210980735474385"></circle><circle r="5.133143420909146" cx="782.7056788019966" cy="553.5578138016406" opacity="0.8692912680748875"></circle><circle r="6.444565294733074" cx="15.563277850812883" cy="442.358869255832" opacity="0.19980734963897318"></circle><circle r="6.593063019508008" cx="728.8805087266655" cy="591.8829039200598" opacity="0.18452283758308846"></circle><circle r="4.666774628173294" cx="783.5550060941446" cy="592.6383977853129" opacity="0.23115738985493822"></circle><circle r="4.829911909202387" cx="305.83113970949245" cy="543.5814196914798" opacity="0.18700105772599993"></circle><circle r="5.503081717268023" cx="95.12583013480635" cy="376.28457440529854" opacity="0.18422324389394124"></circle><circle r="7.905408577320224" cx="248.1072663943926" cy="20.919587243540885" opacity="0.6061740143207818"></circle><circle r="3.497029344197834" cx="185.60610400999767" cy="786.5709450167599" opacity="0.13095082544515668"></circle><circle r="4.987588919166457" cx="381.0112945519436" cy="745.3682634548471" opacity="0.3852775376976858"></circle><circle r="4.979702099715771" cx="17.31088331304606" cy="208.8536812271976" opacity="0.9393792570753453"></circle><circle r="7.041843140373691" cx="229.39157874847035" cy="641.7495510536326" opacity="0.8259339694228874"></circle><circle r="8.922857052965602" cx="781.6897889269966" cy="512.8169066482718" opacity="0.9072015236073183"></circle><circle r="3.610383392308051" cx="114.30619819158713" cy="511.05768334556404" opacity="0.8208489311942972"></circle><circle r="7.0404679070878515" cx="337.23639584651556" cy="298.2007112558192" opacity="0.975450579439677"></circle><circle r="6.074988618464407" cx="226.50572849811027" cy="441.90892654222444" opacity="0.7832824531528694"></circle><circle r="2.8411261712792344" cx="295.34503458270245" cy="567.9358971964507" opacity="0.2015938273986927"></circle><circle r="5.282794893267562" cx="13.686724759601367" cy="617.9153727187249" opacity="0.7388644353973131"></circle><circle r="6.047038814403479" cx="302.99215148525616" cy="39.282383272332844" opacity="0.391048945069847"></circle><circle r="6.99615175202333" cx="249.78375611422442" cy="524.2035427147632" opacity="0.17290192749168481"></circle><circle r="5.086213623069256" cx="783.4111689988437" cy="75.36198748001709" opacity="0.42624198250895506"></circle><circle r="5.762537528818174" cx="397.1071538060491" cy="602.3079845145512" opacity="0.8367853116544843"></circle><circle r="6.344248283374465" cx="649.6458705936666" cy="523.6062149031419" opacity="0.644068791373354"></circle><circle r="5.216711945832898" cx="611.4828461574077" cy="73.3324042262261" opacity="0.7716333822012705"></circle><circle r="6.458634482739175" cx="251.17100094726254" cy="376.11080523355275" opacity="0.2577052117558791"></circle><circle r="5.570836434449145" cx="665.1152938845889" cy="398.21060742861664" opacity="0.7744615540249964"></circle><circle r="6.220417746700269" cx="439.4490262679531" cy="712.8918109994066" opacity="0.8682836966900812"></circle><circle r="4.781701908017672" cx="574.8928990186737" cy="13.630755823310444" opacity="0.7391442023619595"></circle><circle r="4.198368430307205" cx="566.1054482055314" cy="783.9485295109521" opacity="0.729656775543121"></circle><circle r="5.433358361803888" cx="610.0494910367738" cy="615.9006503248925" opacity="0.9921628122285986"></circle><circle r="4.254590585769224" cx="347.60769284414914" cy="273.39848903495357" opacity="0.2017921168563393"></circle><circle r="7.152332841505881" cx="302.81077754655473" cy="289.70627585826486" opacity="0.8925039076106387"></circle><circle r="8.006279148441873" cx="740.5178365549554" cy="634.2060312160597" opacity="0.18870682761424945"></circle><circle r="4.77478722603707" cx="640.5570854224286" cy="682.1678947466214" opacity="0.8809959201032274"></circle><circle r="6.745806610213371" cx="620.1987917768672" cy="653.2129764652942" opacity="0.1568489311299645"></circle><circle r="4.031174999041525" cx="329.5898188326026" cy="500.608196166371" opacity="0.8794918418133928"></circle><circle r="5.158020947136606" cx="683.7394558858437" cy="445.33002252515666" opacity="0.6161926058944398"></circle><circle r="5.548018415628364" cx="34.10301757881585" cy="649.3067974333024" opacity="0.9867116907040921"></circle><circle r="6.40855537579652" cx="304.9669820283572" cy="748.508422691693" opacity="0.2757268414937125"></circle><circle r="10.509738178897027" cx="152.86858430835105" cy="656.6774361229916" opacity="0.44544788388682754"></circle><circle r="9.241116719436814" cx="675.5627671951542" cy="159.4004956032142" opacity="0.5659508195402905"></circle><circle r="5.266981575221215" cx="410.0880450425775" cy="189.64012986345674" opacity="0.5753377211818187"></circle><circle r="5.376215786882449" cx="430.8855876411723" cy="223.61889570981074" opacity="0.6665449107528005"></circle><circle r="3.6111311158884516" cx="757.1357968109713" cy="162.31933860249075" opacity="0.934108918400653"></circle><circle r="6.629182583362795" cx="139.09021782349708" cy="228.73788669569427" opacity="0.8760126677097514"></circle><circle r="6.30362732696376" cx="324.3427879141007" cy="567.169955154219" opacity="0.2220502375083278"></circle><circle r="3.939460000194732" cx="151.531876309194" cy="710.1512918171856" opacity="0.5692466740372991"></circle><circle r="6.525587230171605" cx="729.5856972193588" cy="492.8234181610452" opacity="0.30832857808261144"></circle><circle r="8.261443411924265" cx="706.2698490570033" cy="709.278314331307" opacity="0.4157013191373876"></circle><circle r="7.334448177825155" cx="319.35574730866625" cy="213.63165215199456" opacity="0.28763656822700745"></circle><circle r="7.918971861687813" cx="79.36504978590871" cy="671.3379224915309" opacity="0.4639547389248514"></circle><circle r="5.684268067303433" cx="754.7704588133209" cy="211.20383514041572" opacity="0.11154828802668308"></circle><circle r="5.521986134584698" cx="315.41359180868454" cy="178.1591276644817" opacity="0.5557767536243475"></circle><circle r="5.357036249922923" cx="357.7621508919001" cy="54.22386218237104" opacity="0.18493761662661462"></circle><circle r="8.966593194485345" cx="110.41342960983665" cy="209.2166528576435" opacity="0.9685222847918429"></circle><circle r="5.840425065133527" cx="717.3617936023567" cy="443.9736482894012" opacity="0.8456392542876565"></circle><circle r="8.378178025153709" cx="267.619107684434" cy="759.3983290879353" opacity="0.47435503363710585"></circle><circle r="6.776466537489145" cx="105.41370165569907" cy="785.703179520376" opacity="0.10189174887750695"></circle><circle r="4.135578102583078" cx="338.9934643230468" cy="527.4387448514306" opacity="0.7604550284893712"></circle><circle r="6.838184222666509" cx="733.5541997212449" cy="108.76765954482114" opacity="0.6429526802911525"></circle><circle r="9.62517199739046" cx="270.7628014730765" cy="674.2559173113347" opacity="0.6597276541911532"></circle><circle r="4.127414592994126" cx="209.60924283285348" cy="183.27501277242482" opacity="0.6075031317001119"></circle><circle r="7.711981721975274" cx="374.16978237046783" cy="518.2051611849056" opacity="0.5991456124914295"></circle><circle r="4.657181140958233" cx="771.7939001299109" cy="765.2526808375513" opacity="0.5310807079522882"></circle><circle r="5.67063791601385" cx="719.9437470705691" cy="403.35281076962286" opacity="0.8371730633601546"></circle><circle r="6.261894693594538" cx="545.4759540095572" cy="593.1435742514203" opacity="0.35079310806258956"></circle><circle r="4.125220130078015" cx="136.44224625919114" cy="789.9115511749112" opacity="0.8496731897823847"></circle><circle r="8.905099865654577" cx="202.860962701706" cy="28.84151106044116" opacity="0.5088123494860215"></circle><circle r="9.7424197562371" cx="177.34107836754217" cy="456.4237529975747" opacity="0.24903048569741282"></circle><circle r="7.961649986124925" cx="640.0822902669516" cy="136.0517217196012" opacity="0.4210549701439079"></circle><circle r="5.9719329608482985" cx="468.61362444689547" cy="579.2782829380391" opacity="0.4332726311154099"></circle><circle r="4.690521205878405" cx="509.92950246915063" cy="14.048573356054737" opacity="0.5157675727534266"></circle><circle r="3.946309003967084" cx="12.854081048718852" cy="656.0231680267954" opacity="0.6618260427249364"></circle><circle r="4.22535462385846" cx="399.05261718893564" cy="143.09751568572557" opacity="0.9592417512270314"></circle><circle r="7.768882421016803" cx="663.63557088662" cy="261.3562608600209" opacity="0.6560233425280559"></circle><circle r="5.565727909268893" cx="613.5878925475946" cy="133.7441622153453" opacity="0.6384204671672433"></circle><circle r="6.313814487318607" cx="437.97467976844604" cy="164.08967872541405" opacity="0.7916555572861356"></circle><circle r="7.201185903366268" cx="557.0182484485858" cy="206.51359794022824" opacity="0.985730778920517"></circle><circle r="4.6406064819270085" cx="418.3749597239104" cy="491.924396757038" opacity="0.9436101627362649"></circle><circle r="4.957853531842533" cx="696.2060335817855" cy="471.14919861372255" opacity="0.14165442621207255"></circle><circle r="7.127220583911895" cx="517.1177634098163" cy="474.2271891586131" opacity="0.450778318763437"></circle><circle r="4.574286724101743" cx="600.4606029636919" cy="470.7949137330551" opacity="0.40289297197930607"></circle><circle r="5.545925339320332" cx="141.33089290449303" cy="412.26595732682017" opacity="0.6313144051540608"></circle><circle r="5.174056145194298" cx="524.1048763742622" cy="549.9884314798882" opacity="0.9046356074887717"></circle><circle r="4.892936690002244" cx="728.3624353100919" cy="211.04127708251212" opacity="0.868612446871644"></circle><circle r="7.638316794910455" cx="304.9860636770978" cy="657.1432659858539" opacity="0.8064012523236278"></circle><circle r="6.372630465102954" cx="381.9702401550957" cy="479.0815118031268" opacity="0.4640951609968206"></circle><circle r="6.800649384225004" cx="17.325516852049503" cy="244.92453911312356" opacity="0.5858364255861139"></circle><circle r="6.1449273470606185" cx="725.11353533881" cy="785.4011392451655" opacity="0.1946700617094862"></circle><circle r="4.308306374224487" cx="186.05960080224398" cy="733.2879485497033" opacity="0.9760035407897619"></circle><circle r="4.953343003041032" cx="663.532180169674" cy="551.4676846898658" opacity="0.7273840464939242"></circle><circle r="5.428532253535484" cx="573.1932360243363" cy="601.8644413432316" opacity="0.8482021779466772"></circle><circle r="7.639060411288478" cx="411.64818846676866" cy="85.20400464364116" opacity="0.7077196902183241"></circle><circle r="7.717816224890532" cx="236.25526624957655" cy="236.8337427837576" opacity="0.990868835067591"></circle><circle r="6.170552028534108" cx="361.1763330383027" cy="146.36845101326088" opacity="0.5639176623647582"></circle><circle r="7.050314681979533" cx="55.843868108541656" cy="569.2801080590042" opacity="0.9802238205635131"></circle><circle r="8.516886056287126" cx="220.22156920969252" cy="103.92883609095136" opacity="0.8002097098993354"></circle><circle r="6.582609490582746" cx="330.41523892465614" cy="17.732330292312657" opacity="0.39143380619585666"></circle><circle r="4.444854629288382" cx="744.7679197416959" cy="447.6329297367533" opacity="0.46880932318371327"></circle><circle r="6.156175407383467" cx="409.4789560680684" cy="636.8690879755678" opacity="0.27972411500148"></circle><circle r="5.740048222585216" cx="561.2344763475064" cy="697.508093419992" opacity="0.3755847223648773"></circle><circle r="4.899849810234166" cx="161.15330526681018" cy="746.2138521088365" opacity="0.7594175800083729"></circle><circle r="3.7341259297592595" cx="436.0073905244654" cy="583.9629681254464" opacity="0.5224721923095464"></circle><circle r="4.769662068776772" cx="474.45186282504613" cy="637.5380311465817" opacity="0.24575998635659344"></circle><circle r="7.384599058446433" cx="778.8152190037058" cy="674.8719333807948" opacity="0.7759238127796563"></circle><circle r="6.563565741880085" cx="296.2925456808882" cy="519.4982151199249" opacity="0.9950543942974882"></circle><circle r="6.856567097458232" cx="719.1745534902859" cy="751.1474763154561" opacity="0.4494773644362645"></circle><circle r="5.764483986845971" cx="781.9519421696581" cy="404.45992481797373" opacity="0.5099834227389881"></circle><circle r="8.895750194133335" cx="320.19770198145557" cy="142.53255714352957" opacity="0.32668495301305583"></circle><circle r="4.916494739234026" cx="21.47970510888655" cy="94.10685916658969" opacity="0.7165646590594351"></circle><circle r="6.675820818420133" cx="236.71153573199626" cy="687.8763398738267" opacity="0.6598738709076742"></circle><circle r="6.3777425005621176" cx="477.2950250237293" cy="672.6482555229835" opacity="0.8478404971128917"></circle><circle r="5.0722554815189245" cx="381.51011113924983" cy="779.989071292618" opacity="0.7875273248114504"></circle><circle r="7.030473704359786" cx="413.7476011563447" cy="345.3169456530978" opacity="0.7777682939368756"></circle><circle r="7.685384836765985" cx="718.4909582403151" cy="25.832536944516757" opacity="0.10569493130494916"></circle><circle r="6.90330879320943" cx="142.31950464945933" cy="135.83804862472468" opacity="0.43431920488191234"></circle><circle r="5.614711007857644" cx="434.26305866473535" cy="435.3746461422804" opacity="0.23191651074545486"></circle><circle r="6.782953613473293" cx="204.06461631193872" cy="762.7642707867628" opacity="0.25771445966673356"></circle><circle r="4.1784650996433434" cx="119.6840042150257" cy="249.42837939300068" opacity="0.7584972938755035"></circle><circle r="8.624633731849455" cx="98.37077736012728" cy="167.16707057508046" opacity="0.2502295279652754"></circle><circle r="8.50715682981219" cx="558.5106979666213" cy="352.49110792557747" opacity="0.19736519129399233"></circle><circle r="5.864486058102026" cx="345.49497884495025" cy="194.7955681759505" opacity="0.8509675374879985"></circle><circle r="3.661353938539072" cx="11.417556604202698" cy="164.80165752072003" opacity="0.40180720443027207"></circle><circle r="7.643664445422234" cx="121.57890608602176" cy="76.51839461027478" opacity="0.7379594085021304"></circle><circle r="6.993944230522264" cx="131.66599468619074" cy="290.4089860035117" opacity="0.634967093552885"></circle><circle r="6.473011333316465" cx="491.88311508186575" cy="178.03381144176302" opacity="0.8249205120158821"></circle><circle r="5.213802179640611" cx="664.5296100741926" cy="467.8184615736632" opacity="0.6429174072216939"></circle><circle r="3.0649864243747746" cx="7.493607228892432" cy="514.0692808873705" opacity="0.3924468812103987"></circle><circle r="4.917472007457872" cx="787.209528668922" cy="171.29246092217866" opacity="0.6602079698170666"></circle><circle r="5.596986433865153" cx="485.3081567041659" cy="525.1469334459224" opacity="0.16933518872480047"></circle><circle r="6.316728878419192" cx="515.1037582211741" cy="336.5147808498401" opacity="0.43571473411005035"></circle><circle r="6.095321638378675" cx="80.58900928950635" cy="734.1987987416503" opacity="0.7026255788144457"></circle><circle r="4.1331350853944375" cx="695.2493184634081" cy="273.0652768616485" opacity="0.8217315658873452"></circle><circle r="7.913887066001585" cx="208.4016223326078" cy="515.85504166447" opacity="0.8444034878557467"></circle><circle r="4.0758487098217255" cx="163.76172179375286" cy="210.68493248436673" opacity="0.6515719713612241"></circle><circle r="4.9791618279797305" cx="39.185743709170275" cy="598.0805859107168" opacity="0.45613832566357304"></circle><circle r="7.8163404959512635" cx="279.57029452753835" cy="216.0181748976006" opacity="0.9837066341501266"></circle><circle r="8.113443621129445" cx="344.2956717706689" cy="734.0183489827592" opacity="0.4613414976507225"></circle><circle r="7.946205729460227" cx="556.0929439930807" cy="536.9223984328573" opacity="0.39835820883817397"></circle><circle r="4.967335282151553" cx="309.33260964415297" cy="376.0336286233186" opacity="0.49513215515636044"></circle><circle r="5.386111218995622" cx="304.01144229104176" cy="410.844972946145" opacity="0.17899585322824407"></circle><circle r="4.336415993475062" cx="68.52833895634136" cy="705.6217162262777" opacity="0.8699249242353361"></circle><circle r="4.65471482645372" cx="465.818964183067" cy="407.09016967365517" opacity="0.7661325034870201"></circle><circle r="3.5972915275574913" cx="417.569550910587" cy="668.8078731670811" opacity="0.42740273837530507"></circle><circle r="8.096912429045242" cx="279.18086767014586" cy="63.52071746875646" opacity="0.3587455464171231"></circle><circle r="5.503077223473997" cx="547.576406131377" cy="14.343487027362775" opacity="0.43157454084929947"></circle><circle r="7.827360867573756" cx="188.93747995548893" cy="619.72179856168" opacity="0.1758594985096008"></circle><circle r="7.68107374703225" cx="531.8746536429888" cy="412.28287227546707" opacity="0.7844035487074952"></circle><circle r="6.655379709702358" cx="65.2499106373159" cy="314.42963121169805" opacity="0.5867586241209517"></circle><circle r="6.601604446257678" cx="559.4602702324181" cy="46.34470940508228" opacity="0.10702645159450878"></circle><circle r="5.750873805240781" cx="615.406899806715" cy="308.4861339170271" opacity="0.9262323778253879"></circle><circle r="5.48338366185265" cx="16.708445898100855" cy="761.5012907848251" opacity="0.2139282612576064"></circle><circle r="6.6585931098326805" cx="346.1592557205986" cy="110.61233916105148" opacity="0.38003797620336355"></circle><circle r="8.785448936776767" cx="242.7733339478024" cy="191.77974917702957" opacity="0.9734855896161929"></circle><circle r="4.149829036194468" cx="71.99862731108942" cy="473.78043682420247" opacity="0.33485085700134104"></circle><circle r="6.899121413312711" cx="383.20542814619756" cy="108.80795242794355" opacity="0.9550895519353556"></circle><circle r="7.496385819967417" cx="497.2461485806946" cy="371.6931129972893" opacity="0.7654302574585572"></circle><circle r="8.023904265423283" cx="582.0815865986924" cy="439.5040836197772" opacity="0.21836683446697347"></circle><circle r="6.418031233138006" cx="623.1849153150256" cy="422.6933032682061" opacity="0.11772424674738763"></circle><circle r="7.330839515673537" cx="401.37888996128896" cy="446.41927553137043" opacity="0.6610005124906998"></circle><circle r="2.5077654273419467" cx="683.799414375718" cy="244.22822270841078" opacity="0.8927075061986828"></circle><circle r="6.601080984468597" cx="677.9925368640105" cy="39.77391968974076" opacity="0.37692469559623787"></circle><circle r="3.7562331119008423" cx="355.3522702892697" cy="613.0407056671819" opacity="0.7384462958024319"></circle><circle r="6.18082380843977" cx="493.46145822145314" cy="595.5956895937818" opacity="0.7789284507477561"></circle><circle r="5.430776794032548" cx="392.8186699211925" cy="240.18117223294533" opacity="0.9255007525552005"></circle><circle r="4.14572214000884" cx="524.4027622187743" cy="41.68689200759992" opacity="0.6743508787634023"></circle><circle r="6.222882337925095" cx="681.9011553614082" cy="300.5506386515475" opacity="0.21278320840572623"></circle><circle r="8.918120819721363" cx="562.7496680955401" cy="489.56741697233156" opacity="0.957074489967668"></circle><circle r="7.035157847687607" cx="24.593640069950435" cy="345.494522568" opacity="0.3199110820473934"></circle><circle r="4.763293597093914" cx="508.7061156099418" cy="623.929358432663" opacity="0.17990499028484075"></circle><circle r="2.152289700611452" cx="6.628743149637451" cy="674.5370480000657" opacity="0.9010637178252484"></circle><circle r="5.133482341711987" cx="186.81059296494726" cy="562.5350912769023" opacity="0.2664481255391643"></circle><circle r="5.5132116795396255" cx="47.62672406841822" cy="532.9283919585558" opacity="0.5334422742143863"></circle><circle r="5.617329410742213" cx="747.5257854661897" cy="409.70584642245706" opacity="0.27016734005683996"></circle><circle r="4.08367507214993" cx="294.0223589435663" cy="786.5413636495142" opacity="0.6790884708376274"></circle><circle r="6.538646653012784" cx="500.358203895261" cy="500.5979779661241" opacity="0.7998089436301383"></circle><circle r="4.137539506504784" cx="712.7328423516616" cy="618.6356514364516" opacity="0.713618750530347"></circle><circle r="6.595692137923604" cx="84.64594609838103" cy="763.649675314405" opacity="0.8740156031291706"></circle><circle r="7.649821181625665" cx="677.4645193892846" cy="759.3390128928045" opacity="0.49632942358225796"></circle><circle r="7.206780979363253" cx="583.0562892348862" cy="106.778275325091" opacity="0.1047450680748604"></circle><circle r="7.645618079835296" cx="72.5463061440369" cy="274.1755489568644" opacity="0.3388778623845201"></circle><circle r="3.613152271193766" cx="711.8362636200425" cy="266.0103973931528" opacity="0.5959947415842769"></circle><circle r="6.552945784156584" cx="637.4092523352881" cy="388.69481633360505" opacity="0.11846855928376172"></circle><circle r="4.984470582447606" cx="563.2069762675129" cy="568.0109820143242" opacity="0.9318367169030582"></circle><circle r="4.1419256095439865" cx="591.4564288069992" cy="27.589226202359388" opacity="0.5567304886172584"></circle><circle r="6.7473768292223575" cx="722.0430060415108" cy="371.1166779216587" opacity="0.39398812178765386"></circle><circle r="7.1098401262135855" cx="361.43834035917286" cy="224.2137560190222" opacity="0.8454373121932222"></circle><circle r="12.390531021961117" cx="596.0692620299009" cy="244.40975807467836" opacity="0.4279706618180009"></circle><circle r="3.9802777543496424" cx="164.82552947817072" cy="239.33182091019583" opacity="0.4056421547842468"></circle><circle r="5.070269818689072" cx="691.3329655520225" cy="499.6928488082774" opacity="0.29490134519800315"></circle><circle r="5.567837558193171" cx="446.29619162209326" cy="647.7821799780177" opacity="0.3207262596069493"></circle><circle r="6.011016074833771" cx="528.6148230748261" cy="680.892466852908" opacity="0.7778048710669927"></circle><circle r="6.977543988213875" cx="92.30675660403222" cy="332.5908101324232" opacity="0.3111078838340547"></circle><circle r="4.041878267065578" cx="143.51162378219365" cy="501.0992936192327" opacity="0.4898234313312372"></circle><circle r="4.6834059953513085" cx="447.24228893555573" cy="477.36882014547894" opacity="0.28489056542144553"></circle><circle r="10.558290235007735" cx="98.0970287804596" cy="607.547593379609" opacity="0.7165418749843997"></circle><circle r="5.7363685526360495" cx="546.4962581982771" cy="630.6943896372989" opacity="0.45967487519228745"></circle><circle r="5.206181872190965" cx="97.39504303406423" cy="467.61776973067725" opacity="0.8356291872528386"></circle><circle r="3.102901670574352" cx="84.71146149978262" cy="11.280246328368262" opacity="0.8917194189721438"></circle><circle r="4.087104656199483" cx="781.2769943958198" cy="787.6688629074932" opacity="0.7455276797598882"></circle><circle r="5.1546488631873055" cx="387.8232748484584" cy="718.4673393565647" opacity="0.20561206443726338"></circle><circle r="6.635974986509447" cx="158.02510197297212" cy="29.791452375059546" opacity="0.4202716492875802"></circle><circle r="4.575669659922721" cx="86.39458985676508" cy="87.21821328751786" opacity="0.8861396783842641"></circle><circle r="4.053755102790369" cx="790.7834275353875" cy="241.41927257915435" opacity="0.4111978151542899"></circle><circle r="2.6388361311986044" cx="215.29088432380422" cy="726.6112838406316" opacity="0.5189556397762722"></circle><circle r="4.85746989589968" cx="317.56581980106296" cy="442.5782049934653" opacity="0.9037347640164611"></circle><circle r="4.852956331451897" cx="743.2793056768434" cy="76.27877470539495" opacity="0.6343096544468799"></circle><circle r="9.11373743145476" cx="557.3287949183289" cy="392.0742469398296" opacity="0.3983199749645274"></circle><circle r="5.354390918531063" cx="562.6608025053657" cy="663.1498104064176" opacity="0.17979425534337412"></circle><circle r="7.30649592956125" cx="237.6303663461707" cy="738.3980767325553" opacity="0.48947713160937945"></circle><circle r="6.441036721334715" cx="105.9319895713396" cy="537.0988880576958" opacity="0.791336232192279"></circle><circle r="5.049157262543073" cx="239.55763706797512" cy="783.3375443777485" opacity="0.3015914310822083"></circle><circle r="3.99938546695378" cx="741.9800018214205" cy="708.2819706047477" opacity="0.9082624073651314"></circle><circle r="4.097232618077186" cx="482.1482672372322" cy="552.9866049323307" opacity="0.7832159158956524"></circle><circle r="6.910949129375771" cx="43.697535362396025" cy="381.244581123857" opacity="0.32910332835444056"></circle><circle r="3.5491662317385093" cx="494.35090431151144" cy="647.5041215164468" opacity="0.416358882646907"></circle><circle r="7.296757888028716" cx="183.9115932315446" cy="413.8063240680303" opacity="0.5929101625732403"></circle><circle r="4.210377851267884" cx="224.4705803913129" cy="331.48971107761224" opacity="0.24976035784637293"></circle><circle r="4.296215704236171" cx="429.28508961551125" cy="16.059943402748218" opacity="0.349640744447936"></circle><circle r="6.7537410061431125" cx="448.1512021904188" cy="80.15969818927599" opacity="0.16201849816699693"></circle><circle r="4.331627884363471" cx="417.62432223480965" cy="729.0377794063733" opacity="0.8984490967974282"></circle><circle r="3.368285510482056" cx="770.4472925054112" cy="247.28575224960306" opacity="0.22587673483957843"></circle><circle r="9.612893373900047" cx="476.1369608604204" cy="138.45496647791643" opacity="0.48239786196747014"></circle><circle r="8.500930313353063" cx="569.2776152800435" cy="306.217757824117" opacity="0.5116609614783176"></circle><circle r="4.491640813890318" cx="185.55391258074326" cy="319.6457971003951" opacity="0.2443034536291774"></circle><circle r="7.44486323451091" cx="670.7908905242186" cy="704.1182860633301" opacity="0.6954085239319137"></circle><circle r="10.4636996873663" cx="452.3983915167075" cy="370.30870060816466" opacity="0.5975924035676073"></circle><circle r="8.124477237153336" cx="15.156678387671228" cy="561.5137588031695" opacity="0.908683682895371"></circle><circle r="5.107847637688852" cx="541.4450653821253" cy="721.4893948209" opacity="0.6589558307856491"></circle><circle r="3.5359739345270516" cx="194.62025891860822" cy="276.45264012519965" opacity="0.7588848264619581"></circle><circle r="6.1398854961307885" cx="546.7121242368913" cy="754.1430397842687" opacity="0.3748767806414608"></circle><circle r="5.413529644780595" cx="280.15897476462334" cy="353.3862819397816" opacity="0.613791390915072"></circle><circle r="5.908105611478425" cx="274.5039252431234" cy="168.69434560079173" opacity="0.15481775115420476"></circle><circle r="5.477901526592989" cx="519.0829898105395" cy="655.09301407716" opacity="0.25760048308093236"></circle><circle r="7.081811863298963" cx="461.06462277428557" cy="697.6089992237597" opacity="0.45435179526356184"></circle><circle r="3.963284690497674" cx="722.7671046564035" cy="314.37747016190275" opacity="0.41733643900100803"></circle><circle r="7.010523899042139" cx="116.5153954286555" cy="698.3828246637004" opacity="0.527127700238062"></circle><circle r="4.433676701372932" cx="513.4638323638967" cy="754.6890560382426" opacity="0.3416285689065275"></circle><circle r="8.311651042906682" cx="694.3304172818905" cy="580.0009080291464" opacity="0.19540460215721667"></circle><circle r="7.021981297981062" cx="71.81213335510864" cy="528.3193758635892" opacity="0.36937615461344364"></circle><circle r="6.436096897208875" cx="195.4643317733215" cy="667.9260320623616" opacity="0.8349626494347626"></circle><circle r="3.139057601851325" cx="54.19910788131402" cy="490.45142390805876" opacity="0.20653787821436534"></circle><circle r="9.004820286660305" cx="370.4133035331075" cy="326.79373118898275" opacity="0.7558270503069636"></circle><circle r="7.555970956468146" cx="488.6973738453917" cy="730.1213419276429" opacity="0.2614048399674098"></circle><circle r="9.475564529440295" cx="778.4742167757813" cy="631.8898355992875" opacity="0.5047922875434444"></circle><circle r="5.4065307344663704" cx="349.4959241004037" cy="360.74886622483945" opacity="0.5246629730606288"></circle><circle r="5.087303715534616" cx="568.927553763956" cy="72.60527689448034" opacity="0.4194706782549834"></circle><circle r="5.447251559622112" cx="595.7392052681873" cy="391.5512758726549" opacity="0.34655925115441766"></circle><circle r="7.3717116613797" cx="529.3641181124125" cy="515.5103205065342" opacity="0.5425260246801772"></circle><circle r="4.993522558434055" cx="20.44461054659012" cy="690.0991823834804" opacity="0.8700170119195256"></circle><circle r="3.3273314109289296" cx="53.35893993760492" cy="12.557915342530698" opacity="0.3456275739731609"></circle><circle r="6.025864937174539" cx="664.5554553819954" cy="112.11497168825848" opacity="0.9047905054834335"></circle><circle r="4.035974257781362" cx="512.6997402281286" cy="573.0595246333654" opacity="0.10905128130448474"></circle><circle r="6.8442384222604415" cx="117.51774607942154" cy="24.82044722335511" opacity="0.6132825095946356"></circle><circle r="5.9580549092647646" cx="557.3311579927833" cy="158.61617775333366" opacity="0.9026175529024656"></circle><circle r="10.07080106142567" cx="492.70410739818703" cy="295.7305501070264" opacity="0.9277485663160256"></circle><circle r="5.003632721798479" cx="494.85220755075" cy="784.0756580941287" opacity="0.8024511428712795"></circle><circle r="11.542239341605192" cx="629.4622370210108" cy="728.6794294143288" opacity="0.11020112968729524"></circle><circle r="7.605465870316298" cx="354.5631230903426" cy="407.07305376386904" opacity="0.8099840446665385"></circle><circle r="5.0283274600439025" cx="761.4810395821477" cy="16.496302888121633" opacity="0.5530530878630491"></circle><circle r="8.94178049275309" cx="598.7299810336758" cy="688.8025037614196" opacity="0.7590720334220523"></circle><circle r="3.8702838207963484" cx="520.2459699487389" cy="126.21712623453293" opacity="0.34636166964270143"></circle><circle r="7.8158637731507445" cx="273.7150511565727" cy="718.8050214479673" opacity="0.8371230898034836"></circle><circle r="5.049801920103016" cx="61.73731611206953" cy="633.4012999615751" opacity="0.21110463142744623"></circle><circle r="5.406004501656939" cx="516.3131961834875" cy="69.3711114353019" opacity="0.14688101157199207"></circle><circle r="4.408779174189282" cx="157.0377734227484" cy="269.8481676847395" opacity="0.25408258880845275"></circle><circle r="5.049606031781115" cx="783.9502212123917" cy="706.6596617096958" opacity="0.49348717361586025"></circle><circle r="7.875312503249944" cx="591.5705969740035" cy="535.7102957879677" opacity="0.5579246376529934"></circle><circle r="5.348698099452853" cx="15.255463442942315" cy="308.8012148217714" opacity="0.4683113833000665"></circle><circle r="4.886904926197435" cx="268.5855472577651" cy="302.42056764756546" opacity="0.6450289206080225"></circle><circle r="4.216906945773875" cx="758.4278255335497" cy="328.1053980447837" opacity="0.6487635979353336"></circle><circle r="4.122595339297579" cx="176.47248995501252" cy="699.0078493882253" opacity="0.9483774521208627"></circle><circle r="3.0797642984448457" cx="275.0755124034442" cy="606.6127309547941" opacity="0.4360633993365768"></circle><circle r="6.162468006342856" cx="734.0154110896043" cy="146.20616677841537" opacity="0.927540641208021"></circle><circle r="5.473469449287936" cx="256.4088052642122" cy="628.8799806498808" opacity="0.9987935321024579"></circle><circle r="3.4922066824254023" cx="406.97945763195617" cy="693.1207957673164" opacity="0.9586621726063982"></circle><circle r="4.87403799627123" cx="703.0461957383986" cy="338.97629036376696" opacity="0.461369098997108"></circle><circle r="6.325441171331242" cx="134.8827357978003" cy="451.3411196979514" opacity="0.47666277512502775"></circle><circle r="6.441391870383693" cx="60.3029670892959" cy="156.20537358034565" opacity="0.5618542510568938"></circle><circle r="6.299752744273576" cx="266.05913324976024" cy="407.30141355732343" opacity="0.5157981824787495"></circle><circle r="5.427482683891404" cx="613.0992801252244" cy="506.39269976900385" opacity="0.9956897504868475"></circle><circle r="4.210134173764342" cx="179.82240385158207" cy="190.36003925865285" opacity="0.9176201975849441"></circle><circle r="5.275836634052991" cx="26.797766007062524" cy="272.37277075515095" opacity="0.543941753517666"></circle><circle r="8.610454637433007" cx="173.52934171037913" cy="508.67268682953465" opacity="0.8015853040157547"></circle><circle r="9.41563011935106" cx="527.0372683288031" cy="252.2158639054078" opacity="0.20430967439047476"></circle><circle r="4.740996108456697" cx="33.35514895268362" cy="472.64835763515214" opacity="0.8330857784759768"></circle><circle r="4.927836358876261" cx="786.4122434393544" cy="736.5131322030876" opacity="0.7238819387827901"></circle><circle r="5.214928844322899" cx="616.3979428664368" cy="29.651126883712774" opacity="0.445251585691247"></circle><circle r="7.271686376982531" cx="392.52626539207455" cy="42.63748232476963" opacity="0.6272790421989479"></circle><circle r="6.487320142034289" cx="587.7409553927348" cy="147.90799673181874" opacity="0.1532346055879352"></circle></g></svg>
